<svg xmlns="http://www.w3.org/2000/svg" viewBox="0 0 382.92 457.18"><defs><style>.cls-1{fill:#fff;}</style></defs><g id="Layer_2" data-name="Layer 2"><g id="Layer_1-2" data-name="Layer 1"><path class="cls-1" d="M77.69,457.18c-10.41,0-19.09-8.41-20-19.36l-24.1-295.4h315.7l-24.1,295.4c-.89,10.95-9.57,19.36-20,19.36Z"/><path class="cls-1" d="M372.24,56.25a19.29,19.29,0,0,1-17.33-11.32L342.63,19C337.12,7.35,325.86,0,313.54,0H69.38C57.06,0,45.8,7.35,40.29,19L28,44.93A19.29,19.29,0,0,1,10.68,56.25C4.78,56.25,0,61.3,0,67.53v45H382.92v-45C382.92,61.3,378.14,56.25,372.24,56.25Z"/></g></g></svg>