<svg xmlns="http://www.w3.org/2000/svg" viewBox="0 0 94.36 154.88"><defs><style>.cls-1{fill:#508141;}.cls-1,.cls-2,.cls-3,.cls-5,.cls-6,.cls-7,.cls-8,.cls-9{stroke:#000;stroke-miterlimit:10;}.cls-2{fill:#fbd2cc;}.cls-3{fill:#fdd5cb;}.cls-4{fill:#facfca;}.cls-5{fill:#e7c789;}.cls-7{fill:none;}.cls-8{fill:#eab16b;}.cls-9{fill:#a0bab6;}</style></defs><g id="Layer_2" data-name="Layer 2"><g id="Layer_1-2" data-name="Layer 1"><path class="cls-1" d="M57.74,77.49l-10.56.33-10.56-.33C.74,77.49.5,101.1.5,101.1v53.28H93.86V101.1S93.62,77.49,57.74,77.49Z"/><path class="cls-2" d="M47.18,72.84l-10.56-4.5v9.15a14.32,14.32,0,0,0,21.12,0V68.34Z"/><ellipse class="cls-3" cx="27.02" cy="39.44" rx="6.72" ry="8.3"/><ellipse class="cls-3" cx="67.34" cy="39.44" rx="6.72" ry="8.3"/><path class="cls-4" d="M66.76,36.9C66.76,51.55,59,67,47.18,67s-19.7-16.47-19.7-31.11S35.32,14,47.18,14,66.76,22.25,66.76,36.9Z"/><path class="cls-5" d="M23.3,1.23s2.4,9.12,11.76,5.88A64.36,64.36,0,0,1,47.39,4.27,22.94,22.94,0,0,1,63.1,7.73c3.26,2.17,6.1,5.34,6,9.82C69.05,25.9,67.08,28.2,66.3,29c-3.52-8.72-10.81-14.11-19.24-14.11S31.51,20.73,28,29.3c-.84-2.22-4.14-10.41-7.77-13.31C16,12.63,23.3,1.23,23.3,1.23Z"/><circle class="cls-6" cx="35.79" cy="41.22" r="2.49"/><circle class="cls-6" cx="58.56" cy="41.22" r="2.49"/><path class="cls-7" d="M41.36,58s.54,2.94,5.4,2.94"/><path class="cls-7" d="M52.16,58s-.54,2.94-5.4,2.94"/><path class="cls-7" d="M47.18,34s-2.82,6.78,5,10c0,0,1.08,2.94-5,5.1"/><path class="cls-5" d="M27.61,34c.2-2.85.34-4.68.34-4.68A46,46,0,0,0,27.61,34Z"/><path class="cls-5" d="M66.75,34A37.66,37.66,0,0,0,66.3,29S66.55,31.13,66.75,34Z"/><path class="cls-5" d="M66.75,34C67,42.75,65.54,61.26,49.49,66.4a7.59,7.59,0,0,1-4.62,0C28.82,61.26,27.36,42.75,27.61,34c-.48,6.9-1.31,19.78-1.31,26.92,0,4.41,4,7.4,8.49,9.36a31,31,0,0,0,24.78,0c4.49-2,8.49-5,8.49-9.36C68.06,53.76,67.23,40.88,66.75,34Z"/><polygon class="cls-5" points="47.18 53.19 39.62 50.94 31.16 55.98 31.88 58.59 47.18 53.19"/><polygon class="cls-5" points="47.18 53.19 54.74 50.94 63.2 55.98 62.48 58.59 47.18 53.19"/><path class="cls-8" d="M42.15,91.17l-2.62,1.1a7.6,7.6,0,0,1-5.9,0h0a4.18,4.18,0,0,1-2.55-3.84V86.17h.05V83.94a4.19,4.19,0,0,1,2.54-3.85h0a7.6,7.6,0,0,1,5.9,0l2.63,1.09Z"/><rect class="cls-8" x="42.2" y="81.17" width="9.96" height="10"/><path class="cls-8" d="M52.21,91.17l2.62,1.1a7.6,7.6,0,0,0,5.9,0h0a4.17,4.17,0,0,0,2.54-3.84V86.17h0V83.94a4.19,4.19,0,0,0-2.54-3.85h0a7.6,7.6,0,0,0-5.9,0l-2.63,1.09Z"/><line class="cls-9" x1="42.15" y1="91.17" x2="42.15" y2="154.38"/><circle cx="47.18" cy="100.38" r="1.56"/><circle cx="47.18" cy="114.38" r="1.56"/><circle cx="47.18" cy="128.37" r="1.56"/><circle cx="47.18" cy="142.37" r="1.56"/><path class="cls-7" d="M32.11,36.3a6.76,6.76,0,0,1,6.4-1.54"/><path class="cls-7" d="M62.24,36.3a6.73,6.73,0,0,0-6.39-1.54"/></g></g></svg>