<svg xmlns="http://www.w3.org/2000/svg" viewBox="0 0 85 152.26"><defs><style>.cls-1{fill:#ad9363;}.cls-1,.cls-2,.cls-3,.cls-4,.cls-5,.cls-6,.cls-7{stroke:#000;stroke-miterlimit:10;}.cls-2{fill:#508141;}.cls-3{fill:#eab16b;}.cls-4{fill:#e7c789;}.cls-5{fill:#fbd2cc;}.cls-7{fill:none;}</style></defs><g id="Layer_2" data-name="Layer 2"><g id="Layer_1-2" data-name="Layer 1"><ellipse class="cls-1" cx="41.84" cy="59.84" rx="19.26" ry="29.16"/><path class="cls-2" d="M.5,151.76V97.52S3.44,75.44,34.73,75.44l7.77,6.67,7.77-6.67c31.29,0,34.23,22.08,34.23,22.08v54.24Z"/><rect class="cls-3" x="18.02" y="105.2" width="48.96" height="46.56"/><polygon class="cls-3" points="25.09 105.2 23.84 73.94 16.57 78.72 18.02 105.2 25.09 105.2"/><polygon class="cls-3" points="59.91 105.2 61.16 73.94 68.43 78.72 66.98 105.2 59.91 105.2"/><rect class="cls-4" x="25.09" y="118.52" width="34.82" height="25.08"/><path class="cls-5" d="M42.5,70.89l-7.77-8.13V78.89c5,4.33,7.77,4.32,7.77,4.32s2.82,0,7.77-4.32V62.76Z"/><ellipse class="cls-5" cx="42.5" cy="50.48" rx="15.36" ry="21.84"/><circle class="cls-6" cx="33.66" cy="48.3" r="1.91"/><circle class="cls-6" cx="51.12" cy="48.3" r="1.91"/><path class="cls-7" d="M30.84,44.53a5.14,5.14,0,0,1,4.9-1.18"/><path class="cls-7" d="M53.94,44.53A5.14,5.14,0,0,0,49,43.35"/><path class="cls-7" d="M46.52,61.66s-.4,2.19-4,2.19"/><path class="cls-7" d="M38.48,61.66s.4,2.19,4,2.19"/><path class="cls-7" d="M44,54.55a1.38,1.38,0,0,1-1.51,1.09"/><path class="cls-7" d="M41,54.55a1.38,1.38,0,0,0,1.51,1.09"/><path class="cls-4" d="M31.8,92.48s-16.89-47.69,4.68-62.1L29.42,27l-7.11,7S-2.35,61.34,31.8,92.48Z"/><path class="cls-4" d="M51.69,92.48S68.58,44.79,47,30.38L54.07,27l7.11,7S85.85,61.34,51.69,92.48Z"/><path class="cls-3" d="M41.75,8.33S24.23,12.26,24.23,23.66l5.91,2.58,11.61-4,11.6,4,5.91-2.58C59.26,12.26,41.75,8.33,41.75,8.33Z"/><path class="cls-3" d="M41.75,22.19c-15.94,0-19.89,2.25-19.89,2.25L22.31,34c3.38-3.37,19.44-4,19.44-4s16.06.59,19.43,4l.45-9.54S57.68,22.19,41.75,22.19Z"/><circle class="cls-3" cx="42.5" cy="5.45" r="4.95"/></g></g></svg>